<?xml version="1.0" standalone="no"?>
<!DOCTYPE svg PUBLIC "-//W3C//DTD SVG 20010904//EN"
 "http://www.w3.org/TR/2001/REC-SVG-20010904/DTD/svg10.dtd">
<svg version="1.0" xmlns="http://www.w3.org/2000/svg" fill="currentColor"
 width="24.000000pt" height="24.000000pt" viewBox="0 0 24.000000 24.000000"
 preserveAspectRatio="xMidYMid meet">

<g transform="translate(0.000000,24.000000) scale(0.100000,-0.100000)"
fill="currentColor" stroke="none">
<path d="M53 214 c-12 -32 11 -106 40 -128 l27 -20 28 20 c28 22 51 96 39 128
-9 23 -125 23 -134 0z m85 -36 c12 -17 1 -43 -18 -43 -8 0 -18 7 -21 15 -7 15
7 40 21 40 4 0 12 -6 18 -12z"/>
<path d="M10 179 c0 -26 18 -59 32 -59 6 0 4 8 -5 18 -20 22 -22 48 -4 55 7 3
5 6 -5 6 -12 1 -18 -6 -18 -20z"/>
<path d="M208 193 c17 -7 15 -33 -5 -55 -9 -10 -11 -18 -5 -18 14 0 32 33 32
59 0 14 -6 21 -17 20 -11 0 -13 -3 -5 -6z"/>
<path d="M93 41 c-13 -11 -23 -22 -23 -25 0 -3 23 -6 50 -6 28 0 50 3 50 6 0
7 -42 43 -50 43 -3 0 -15 -8 -27 -18z"/>
</g>
</svg>
