<?xml version="1.0" standalone="no"?>
<!DOCTYPE svg PUBLIC "-//W3C//DTD SVG 20010904//EN"
 "http://www.w3.org/TR/2001/REC-SVG-20010904/DTD/svg10.dtd">
<svg version="1.0" xmlns="http://www.w3.org/2000/svg"
 width="24.000000pt" height="24.000000pt" viewBox="0 0 32.000000 32.000000"
 preserveAspectRatio="xMidYMid meet">

<g transform="translate(0.000000,32.000000) scale(0.100000,-0.100000)"
fill="red" stroke="none">
<path d="M53 278 c-12 -6 -27 -24 -34 -40 -20 -48 2 -97 72 -162 33 -31 64
-56 69 -56 5 0 36 25 69 56 70 65 92 114 72 162 -12 28 -47 52 -74 52 -7 0
-24 -7 -39 -14 -24 -13 -32 -13 -55 0 -32 16 -50 17 -80 2z m22 -48 c-10 -11
-20 -18 -23 -15 -7 6 18 35 31 35 5 0 2 -9 -8 -20z"/>
</g>
</svg>
